<?xml version="1.0" encoding="UTF-8"?>
<svg width="403px" height="656px" viewBox="0 0 403 656" version="1.1" xmlns="http://www.w3.org/2000/svg" xmlns:xlink="http://www.w3.org/1999/xlink">
    <defs>
        <rect id="path-1" x="10" y="10" width="277" height="568" rx="42.5"></rect>
        <filter x="-20.6%" y="-9.7%" width="155.6%" height="127.1%" filterUnits="objectBoundingBox" id="filter-2">
            <feOffset dx="20" dy="22" in="SourceAlpha" result="shadowOffsetOuter1"></feOffset>
            <feGaussianBlur stdDeviation="22" in="shadowOffsetOuter1" result="shadowBlurOuter1"></feGaussianBlur>
            <feComposite in="shadowBlurOuter1" in2="SourceAlpha" operator="out" result="shadowBlurOuter1"></feComposite>
            <feColorMatrix values="0 0 0 0 0   0 0 0 0 0   0 0 0 0 0  0 0 0 0.2 0" type="matrix" in="shadowBlurOuter1"></feColorMatrix>
        </filter>
        <path d="M10,0 L46,0 L46,19 C46,24.5228475 41.5228475,29 36,29 L10,29 C4.4771525,29 -1.10000309e-15,24.5228475 -1.77635684e-15,19 L0,10 C-6.76353751e-16,4.4771525 4.4771525,1.01453063e-15 10,0 Z" id="path-3"></path>
        <filter x="-90.2%" y="-125.9%" width="280.4%" height="386.2%" filterUnits="objectBoundingBox" id="filter-4">
            <feOffset dx="0" dy="5" in="SourceAlpha" result="shadowOffsetOuter1"></feOffset>
            <feGaussianBlur stdDeviation="13" in="shadowOffsetOuter1" result="shadowBlurOuter1"></feGaussianBlur>
            <feColorMatrix values="0 0 0 0 0   0 0 0 0 0   0 0 0 0 0  0 0 0 0.141021286 0" type="matrix" in="shadowBlurOuter1"></feColorMatrix>
        </filter>
        <path d="M10,0 L104,0 L104,19 C104,24.5228475 99.5228475,29 94,29 L10,29 C4.4771525,29 6.76353751e-16,24.5228475 0,19 L0,10 C-6.76353751e-16,4.4771525 4.4771525,1.01453063e-15 10,0 Z" id="path-5"></path>
        <filter x="-39.9%" y="-125.9%" width="179.8%" height="386.2%" filterUnits="objectBoundingBox" id="filter-6">
            <feOffset dx="0" dy="5" in="SourceAlpha" result="shadowOffsetOuter1"></feOffset>
            <feGaussianBlur stdDeviation="13" in="shadowOffsetOuter1" result="shadowBlurOuter1"></feGaussianBlur>
            <feColorMatrix values="0 0 0 0 0   0 0 0 0 0   0 0 0 0 0  0 0 0 0.141021286 0" type="matrix" in="shadowBlurOuter1"></feColorMatrix>
        </filter>
        <path d="M38,23 L220,23 C225.522847,23 230,27.4771525 230,33 L230,115 C230,120.522847 225.522847,125 220,125 L48,125 C42.4771525,125 38,120.522847 38,115 L38,23 Z" id="path-7"></path>
        <filter x="-21.6%" y="-35.8%" width="143.2%" height="181.4%" filterUnits="objectBoundingBox" id="filter-8">
            <feOffset dx="0" dy="5" in="SourceAlpha" result="shadowOffsetOuter1"></feOffset>
            <feGaussianBlur stdDeviation="13" in="shadowOffsetOuter1" result="shadowBlurOuter1"></feGaussianBlur>
            <feColorMatrix values="0 0 0 0 0   0 0 0 0 0   0 0 0 0 0  0 0 0 0.141021286 0" type="matrix" in="shadowBlurOuter1"></feColorMatrix>
        </filter>
        <path d="M38,23 L220,23 C225.522847,23 230,27.4771525 230,33 L230,90 C230,95.5228475 225.522847,100 220,100 L48,100 C42.4771525,100 38,95.5228475 38,90 L38,23 Z" id="path-9"></path>
        <filter x="-21.6%" y="-47.4%" width="143.2%" height="207.8%" filterUnits="objectBoundingBox" id="filter-10">
            <feOffset dx="0" dy="5" in="SourceAlpha" result="shadowOffsetOuter1"></feOffset>
            <feGaussianBlur stdDeviation="13" in="shadowOffsetOuter1" result="shadowBlurOuter1"></feGaussianBlur>
            <feColorMatrix values="0 0 0 0 0   0 0 0 0 0   0 0 0 0 0  0 0 0 0.141021286 0" type="matrix" in="shadowBlurOuter1"></feColorMatrix>
        </filter>
        <path d="M38,23 L220,23 C225.522847,23 230,27.4771525 230,33 L230,125 C230,130.522847 225.522847,135 220,135 L48,135 C42.4771525,135 38,130.522847 38,125 L38,23 Z" id="path-11"></path>
        <filter x="-21.6%" y="-32.6%" width="143.2%" height="174.1%" filterUnits="objectBoundingBox" id="filter-12">
            <feOffset dx="0" dy="5" in="SourceAlpha" result="shadowOffsetOuter1"></feOffset>
            <feGaussianBlur stdDeviation="13" in="shadowOffsetOuter1" result="shadowBlurOuter1"></feGaussianBlur>
            <feColorMatrix values="0 0 0 0 0   0 0 0 0 0   0 0 0 0 0  0 0 0 0.141021286 0" type="matrix" in="shadowBlurOuter1"></feColorMatrix>
        </filter>
        <rect id="path-13" x="0" y="0" width="327" height="298" rx="28"></rect>
        <filter x="-17.1%" y="-15.4%" width="134.3%" height="137.6%" filterUnits="objectBoundingBox" id="filter-14">
            <feOffset dx="0" dy="10" in="SourceAlpha" result="shadowOffsetOuter1"></feOffset>
            <feGaussianBlur stdDeviation="17" in="shadowOffsetOuter1" result="shadowBlurOuter1"></feGaussianBlur>
            <feColorMatrix values="0 0 0 0 0   0 0 0 0 0   0 0 0 0 0  0 0 0 0.5 0" type="matrix" in="shadowBlurOuter1"></feColorMatrix>
        </filter>
    </defs>
    <g id="Page-1" stroke="none" stroke-width="1" fill="none" fill-rule="evenodd">
        <g id="animation_1" transform="translate(34.000000, 12.000000)">
            <g id="phone" transform="translate(18.000000, 0.000000)">
                <g id="Rectangle-4-Copy" fill-rule="nonzero">
                    <use fill="black" fill-opacity="1" filter="url(#filter-2)" xlink:href="#path-1"></use>
                    <rect stroke="#979797" stroke-width="1" stroke-linejoin="square" fill="#F0F0F0" fill-rule="evenodd" x="10.5" y="10.5" width="276" height="567" rx="42.5"></rect>
                </g>
                <image id="Apple-iPhone-X-Silver-Copy" x="0" y="0" width="294" height="587" xlink:href="assets/img/iphone.png"></image>
                <rect id="Rectangle-13" fill="#161616" fill-rule="nonzero" x="109" y="558" width="75" height="4" rx="2"></rect>
            </g>
            <g id="massage_2" transform="translate(231.000000, 195.000000)">
                <g id="Rectangle-11-Copy" fill-rule="nonzero">
                    <use fill="black" fill-opacity="1" filter="url(#filter-4)" xlink:href="#path-3"></use>
                    <use fill="#2978FB" xlink:href="#path-3"></use>
                </g>
                <text id="Cool" font-family="Helvetica" font-size="11" font-weight="normal" fill="#FFFFFF">
                    <tspan x="12" y="17">Cool</tspan>
                </text>
            </g>
            <g id="message_4" transform="translate(173.000000, 373.000000)">
                <g id="Rectangle-11-Copy-2" fill-rule="nonzero">
                    <use fill="black" fill-opacity="1" filter="url(#filter-6)" xlink:href="#path-5"></use>
                    <use fill="#2978FB" xlink:href="#path-5"></use>
                </g>
                <text id="All-done,-thanks!" font-family="Helvetica" font-size="11" font-weight="normal" fill="#FFFFFF">
                    <tspan x="11.6708984" y="17">All done, thanks!</tspan>
                </text>
            </g>
            <g id="message_1" transform="translate(50.000000, 56.000000)">
                <g id="Rectangle-11" fill-rule="nonzero">
                    <use fill="black" fill-opacity="1" filter="url(#filter-8)" xlink:href="#path-7"></use>
                    <use fill="#FAFAFA" xlink:href="#path-7"></use>
                </g>
                <text id="Hi-there!-Just-to-re" font-family="Helvetica" font-size="11" font-weight="normal" fill="#2A2A2A">
                    <tspan x="49" y="44">Hi there! Just to remind you, your </tspan>
                    <tspan x="49" y="57">AGM is due soon. I have </tspan>
                    <tspan x="49" y="70">scheduled the meeting on the 1st </tspan>
                    <tspan x="49" y="83">of September, but you don’t have </tspan>
                    <tspan x="49" y="96">to go anywhere: we’ll process all </tspan>
                    <tspan x="49" y="109">the paperwork online.</tspan>
                </text>
                <text id="Osome" font-family="Helvetica" font-size="11" font-weight="normal" fill="#000000" fill-opacity="0.5">
                    <tspan x="38" y="13">Osome</tspan>
                </text>
                <g id="logo">
                    <g id="Group">
                        <g fill-rule="nonzero">
                            <ellipse id="Oval" fill="#2978FD" cx="15.9117576" cy="15.5" rx="15.9117576" ry="15.5"></ellipse>
                            <path d="M4.76121212,15.8386154 C4.68993939,15.8386154 4.61042424,15.8305077 4.5430303,15.8142923 C4.03861792,15.6873313 3.72991521,15.187029 3.84824242,14.6882769 C4.34084848,12.5683538 6.26860606,11.0588923 8.50036364,11.0460154 C10.7195152,11.0460154 12.6414545,12.5426 13.1563636,14.6882769 C13.2766078,15.1872163 12.9670898,15.6886276 12.4615758,15.8138154 C11.9587879,15.9363846 11.4564848,15.6263846 11.3309091,15.1208462 C11.0288485,13.8298154 9.85115152,12.9126923 8.49212121,12.9098308 C7.14375758,12.9098308 5.97963636,13.8193231 5.65721212,15.1246615 C5.56627235,15.5402225 5.19335392,15.8373727 4.76121212,15.8386154 Z M27.0627879,15.8386154 C26.6282001,15.8342528 26.2521221,15.540155 26.1498182,15.1246615 C25.8492121,13.8336308 24.6739394,12.9150769 23.3149091,12.9098308 C21.9621818,12.9098308 20.8024242,13.8193231 20.48,15.1246615 C20.3603938,15.6216 19.8561362,15.9309976 19.3498182,15.8181077 C18.84122,15.6914168 18.5311151,15.1855763 18.6545455,14.6839846 C19.1471515,12.5640615 21.0749091,11.0546 23.3066667,11.0417231 C25.5258182,11.0417231 27.4477576,12.5387846 27.9631515,14.6839846 C28.0836672,15.1832291 27.7738241,15.6850294 27.2678788,15.81 C27.2135758,15.8262154 27.1418182,15.8343231 27.0627879,15.8343231 L27.0627879,15.8386154 Z" id="Shape" fill="#FFFFFF"></path>
                        </g>
                    </g>
                </g>
            </g>
            <g id="message_5" transform="translate(50.000000, 406.000000)">
                <g id="Rectangle-11" fill-rule="nonzero">
                    <use fill="black" fill-opacity="1" filter="url(#filter-10)" xlink:href="#path-9"></use>
                    <use fill="#FAFAFA" xlink:href="#path-9"></use>
                </g>
                <text id="Perfect.-I’ll-prepar" font-family="Helvetica" font-size="11" font-weight="normal" fill="#2A2A2A">
                    <tspan x="49" y="44">Perfect. I’ll prepare the documents </tspan>
                    <tspan x="49" y="57">for the meeting: financial statement </tspan>
                    <tspan x="49" y="70">and resolutions. I’ll send them to </tspan>
                    <tspan x="49" y="83">you to review next week.</tspan>
                </text>
                <text id="Osome" font-family="Helvetica" font-size="11" font-weight="normal" fill="#000000" fill-opacity="0.5">
                    <tspan x="38" y="13">Osome</tspan>
                </text>
                <g id="logo">
                    <g id="Group">
                        <g fill-rule="nonzero">
                            <ellipse id="Oval" fill="#2978FD" cx="15.9117576" cy="15.5" rx="15.9117576" ry="15.5"></ellipse>
                            <path d="M4.76121212,15.8386154 C4.68993939,15.8386154 4.61042424,15.8305077 4.5430303,15.8142923 C4.03861792,15.6873313 3.72991521,15.187029 3.84824242,14.6882769 C4.34084848,12.5683538 6.26860606,11.0588923 8.50036364,11.0460154 C10.7195152,11.0460154 12.6414545,12.5426 13.1563636,14.6882769 C13.2766078,15.1872163 12.9670898,15.6886276 12.4615758,15.8138154 C11.9587879,15.9363846 11.4564848,15.6263846 11.3309091,15.1208462 C11.0288485,13.8298154 9.85115152,12.9126923 8.49212121,12.9098308 C7.14375758,12.9098308 5.97963636,13.8193231 5.65721212,15.1246615 C5.56627235,15.5402225 5.19335392,15.8373727 4.76121212,15.8386154 Z M27.0627879,15.8386154 C26.6282001,15.8342528 26.2521221,15.540155 26.1498182,15.1246615 C25.8492121,13.8336308 24.6739394,12.9150769 23.3149091,12.9098308 C21.9621818,12.9098308 20.8024242,13.8193231 20.48,15.1246615 C20.3603938,15.6216 19.8561362,15.9309976 19.3498182,15.8181077 C18.84122,15.6914168 18.5311151,15.1855763 18.6545455,14.6839846 C19.1471515,12.5640615 21.0749091,11.0546 23.3066667,11.0417231 C25.5258182,11.0417231 27.4477576,12.5387846 27.9631515,14.6839846 C28.0836672,15.1832291 27.7738241,15.6850294 27.2678788,15.81 C27.2135758,15.8262154 27.1418182,15.8343231 27.0627879,15.8343231 L27.0627879,15.8386154 Z" id="Shape" fill="#FFFFFF"></path>
                        </g>
                    </g>
                </g>
            </g>
            <g id="message_3" transform="translate(50.000000, 225.000000)">
                <g id="Rectangle-11" fill-rule="nonzero">
                    <use fill="black" fill-opacity="1" filter="url(#filter-12)" xlink:href="#path-11"></use>
                    <use fill="#FAFAFA" xlink:href="#path-11"></use>
                </g>
                <rect id="Rectangle-12" fill="#2978FB" fill-rule="nonzero" x="47" y="96" width="174" height="29" rx="5"></rect>
                <text id="Check-and-sign" font-family="Helvetica" font-size="11" font-weight="normal" fill="#FFFFFF">
                    <tspan x="96.0881348" y="114">Check and sign</tspan>
                </text>
                <text id="I-have-prepared-noti" font-family="Helvetica" font-size="11" font-weight="normal" fill="#2A2A2A">
                    <tspan x="49" y="44">I have prepared notices informing </tspan>
                    <tspan x="49" y="57">the shareholders and directors of </tspan>
                    <tspan x="49" y="70">the AGM. Just sign them on your </tspan>
                    <tspan x="49" y="83">screen</tspan>
                </text>
                <text id="Osome" font-family="Helvetica" font-size="11" font-weight="normal" fill="#000000" fill-opacity="0.5">
                    <tspan x="38" y="13">Osome</tspan>
                </text>
                <g id="logo">
                    <g id="Group">
                        <g fill-rule="nonzero">
                            <ellipse id="Oval" fill="#2978FD" cx="15.9117576" cy="15.5" rx="15.9117576" ry="15.5"></ellipse>
                            <path d="M4.76121212,15.8386154 C4.68993939,15.8386154 4.61042424,15.8305077 4.5430303,15.8142923 C4.03861792,15.6873313 3.72991521,15.187029 3.84824242,14.6882769 C4.34084848,12.5683538 6.26860606,11.0588923 8.50036364,11.0460154 C10.7195152,11.0460154 12.6414545,12.5426 13.1563636,14.6882769 C13.2766078,15.1872163 12.9670898,15.6886276 12.4615758,15.8138154 C11.9587879,15.9363846 11.4564848,15.6263846 11.3309091,15.1208462 C11.0288485,13.8298154 9.85115152,12.9126923 8.49212121,12.9098308 C7.14375758,12.9098308 5.97963636,13.8193231 5.65721212,15.1246615 C5.56627235,15.5402225 5.19335392,15.8373727 4.76121212,15.8386154 Z M27.0627879,15.8386154 C26.6282001,15.8342528 26.2521221,15.540155 26.1498182,15.1246615 C25.8492121,13.8336308 24.6739394,12.9150769 23.3149091,12.9098308 C21.9621818,12.9098308 20.8024242,13.8193231 20.48,15.1246615 C20.3603938,15.6216 19.8561362,15.9309976 19.3498182,15.8181077 C18.84122,15.6914168 18.5311151,15.1855763 18.6545455,14.6839846 C19.1471515,12.5640615 21.0749091,11.0546 23.3066667,11.0417231 C25.5258182,11.0417231 27.4477576,12.5387846 27.9631515,14.6839846 C28.0836672,15.1832291 27.7738241,15.6850294 27.2678788,15.81 C27.2135758,15.8262154 27.1418182,15.8343231 27.0627879,15.8343231 L27.0627879,15.8386154 Z" id="Shape" fill="#FFFFFF"></path>
                        </g>
                    </g>
                </g>
            </g>
            <g id="popup" transform="translate(0.000000, 139.000000)" fill-rule="nonzero">
                <g id="Rectangle-14">
                    <use fill="black" fill-opacity="1" filter="url(#filter-14)" xlink:href="#path-13"></use>
                    <use fill="#FFFFFF" xlink:href="#path-13"></use>
                </g>
                <path d="M155.238884,100.65635 C157.601879,67.6056482 86.2789297,54.2779627 81.4105363,91.1559862 C80.5943672,97.3384575 85.6002399,109.674381 94.4748467,115.225783 C122.725003,132.897322 139.961878,136.864839 174.948218,136.864839 C188.033176,136.864839 208.350075,144.125624 197.85467,160.653267 C187.359265,177.180911 103.320519,190.525812 77.9068038,170.646204 C65.077757,160.610819 73.4819093,159.908096 76.5072876,161.033149 C99.8594162,169.717143 104.83386,176.15753 128.179498,179.525695 C161.208035,184.290849 169.301662,176.619683 169.727505,177.703014 C170.717538,180.221626 172.347826,182.57614 174.334505,184.557719 C175.324484,185.545156 176.871103,186.069482 178.327791,186.28122 C179.316062,186.42487 180.732443,186.346833 181.222198,185.558884 C189.731968,171.867815 167.876885,177.710361 174.948218,180.201248 C190.022152,185.511061 176.956365,171.908771 183.598265,184.112341 C184.256367,185.321511 185.206374,186.552655 186.538286,187.160748 C187.096414,187.415565 187.91274,186.691091 188.033176,186.137127 C193.904887,159.129286 185.899081,180.438855 189.275117,183.683805 C191.031887,185.372362 190.104013,178.752666 191.989142,177.180911 C193.403764,176.001448 196.714648,175.156231 197.734415,176.630738 C199.643797,179.391561 201.010675,186.378529 198.350202,186.378529 C195.68973,186.378529 195.68973,177.818066 197.734415,176.709334 C199.779101,175.600602 198.884626,183.600094 201.304736,182.287788 C203.724847,180.975481 204.193509,177.880215 206.021624,175.938343 C206.293709,175.649328 207.27419,175.559155 207.282225,175.938343 C207.338628,178.599935 205.704677,181.237595 206.189566,183.863453 C206.32944,184.620923 208.285781,183.845015 208.611247,183.135503 C209.549161,181.090864 210.104358,178.704708 209.544258,176.55027 C209.305991,175.633768 207.672311,175.462315 206.631191,175.519164 C206.192442,175.543121 206.536658,177.096774 206.631191,176.709334 L209.826235,174.875424 C212.905706,162.254325 233.931261,138.742689 218.289679,136.864839 C201.304736,134.825712 216.21219,165.975277 215.992399,180.553059 C215.992164,180.568683 218.318487,169.300384 223.377698,176.041267 C224.542087,177.592697 223.885712,182.013484 221.889028,181.499955 C217.036202,180.251854 225.718448,171.073648 226.491881,171.849473 C228.504634,173.868452 229.556946,180.281715 226.450414,179.997272 C223.343881,179.712829 224.524854,168.347512 229.556946,172.567026 C231.037829,173.808776 232.665256,178.848358 233.557882,180.281715 C233.871536,180.933719 235.461724,180.596728 235.900776,180.006629 C240.691438,173.567838 235.299918,173.319504 236.744633,179.54628 C236.932616,180.356497 238.029241,181.427875 238.878117,181.11446 C244.411016,179.071646 240.98074,166.971138 240.304587,176.492259 C240.016175,180.553477 239.467087,184.665262 240.064078,188.698986 C240.270415,190.093162 241.475884,193.166794 242.632967,192.224584 C244.086078,191.04132 248.934054,182.888232 247.523089,184.112341 C238.950657,197.725625 220.845028,203.441934 193.206203,201.261268 C151.747965,197.990268 188.033176,190.648021 201.354497,195.686557 C216.841414,201.544188 229.733785,211.814096 244.751938,218.483177 C248.718822,220.244743 263.415811,223.068783 272,218.61417" id="sign" stroke="#272C50" stroke-width="2"></path>
            </g>
        </g>
    </g>
</svg>