<svg width="190" height="72" xmlns="http://www.w3.org/2000/svg"><g fill="none" fill-rule="evenodd"><g fill-rule="nonzero"><ellipse fill="#2978FD" cx="32.818" cy="32.5" rx="32.818" ry="32.5"/><path d="M9.82 33.21c-.147 0-.311-.017-.45-.051a1.974 1.974 0 0 1-1.433-2.361c1.016-4.445 4.992-7.61 9.595-7.637 4.577 0 8.541 3.138 9.603 7.637a1.966 1.966 0 0 1-1.433 2.36c-1.037.257-2.073-.393-2.332-1.453-.623-2.707-3.052-4.63-5.855-4.636-2.781 0-5.182 1.907-5.847 4.644A1.896 1.896 0 0 1 9.82 33.21zm45.997 0a1.958 1.958 0 0 1-1.883-1.497c-.62-2.707-3.044-4.633-5.847-4.644-2.79 0-5.182 1.907-5.847 4.644a1.952 1.952 0 0 1-2.331 1.454 1.974 1.974 0 0 1-1.434-2.378c1.016-4.445 4.992-7.61 9.595-7.637 4.577 0 8.541 3.139 9.604 7.637a1.966 1.966 0 0 1-1.434 2.361c-.112.034-.26.051-.423.051v.009z" fill="#FFF"/><path d="M108.542 31.046c-2.971-.59-4.457-1.454-4.457-2.583 0-1.077.95-1.924 2.85-1.924 1.693 0 2.98 1 3.852 2.625l3.42-1.967a8.201 8.201 0 0 0-2.573-2.908 8.964 8.964 0 0 0-4.768-1.197c-1.96 0-3.627.556-4.991 1.505a4.961 4.961 0 0 0-2.065 4.165c0 2.968 2.203 4.876 6.599 5.714 1.416.265 2.444.581 3.083.94.63.351.95.822.95 1.412 0 .641-.294 1.137-.89 1.496-.604.351-1.295.53-2.072.53-1.175 0-2.177-.35-2.997-1.068a6.1 6.1 0 0 1-1.322-1.625l-3.843 2.206a9.6 9.6 0 0 0 2.652 2.848c1.433 1.026 3.238 1.548 5.423 1.548 2.289 0 4.102-.573 5.45-1.71a5.477 5.477 0 0 0 2.02-4.362c0-1.531-.5-2.737-1.502-3.635-1.002-.898-2.608-1.565-4.82-2.01zm55.549-1.941v12.803h-4.646V30.584c0-2.292-.96-3.438-2.876-3.438-1.054 0-1.909.402-2.565 1.189-.648.787-.976 1.916-.976 3.387v10.186h-4.647V30.653c0-2.335-.984-3.507-2.953-3.507-.95 0-1.77.402-2.453 1.197a4.953 4.953 0 0 0-1.01 3.31v10.255h-4.647V23.605h4.647v2.438a6.006 6.006 0 0 1 5.31-2.95c2.557 0 4.25 1.043 5.096 3.138a6.423 6.423 0 0 1 5.821-3.139c1.866 0 3.317.539 4.353 1.625 1.036 1.078 1.546 2.54 1.546 4.388zm-38.432 9.21c-3.005 0-5.44-2.412-5.44-5.387 0-2.976 2.435-5.389 5.44-5.389 3.005 0 5.441 2.413 5.441 5.389 0 2.975-2.436 5.388-5.44 5.388zm0-15.223c-5.485 0-9.932 4.404-9.932 9.836s4.447 9.835 9.932 9.835 9.932-4.403 9.932-9.835c0-5.432-4.447-9.836-9.932-9.836zm-38 15.224c-3.005 0-5.44-2.413-5.44-5.388 0-2.976 2.435-5.389 5.44-5.389 3.005 0 5.441 2.413 5.441 5.389 0 2.975-2.436 5.388-5.44 5.388zm0-15.224c-5.485 0-9.932 4.404-9.932 9.836s4.447 9.835 9.932 9.835 9.932-4.403 9.932-9.835c0-5.432-4.447-9.836-9.932-9.836zm90.086 4.037c2.746 0 4.405 1.625 5.035 3.926h-10.208a5.32 5.32 0 0 1 .173-.48c.863-1.966 2.634-3.446 5.009-3.446h-.009zm9.57 7.295c.068-1.052-.225-4.062-1.011-5.756-1.473-3.361-4.851-5.507-8.55-5.43-5.528 0-10.01 4.55-10.01 10.169 0 5.165 4.301 10.16 10.407 10.16 3.722 0 7.22-1.941 9.154-4.738l-3.782-2.087a7.953 7.953 0 0 1-5.588 2.523c-2.825-.032-5.215-2.077-5.657-4.84h15.036z" fill="#2978FD"/></g><circle stroke="#FFF" stroke-width="3" fill="#57B637" fill-rule="nonzero" cx="56" cy="59" r="7.5"/></g></svg>