<svg width="25" height="23" xmlns="http://www.w3.org/2000/svg"><path d="M9.375 15.562h-.156a6.316 6.316 0 0 1-4.375 1.687l-1.328-.077a.777.777 0 0 1-.625-.537.756.756 0 0 1 .156-.766c.469-.537.86-1.074 1.094-1.687 0-.153 0-.23-.157-.306C1.563 12.342 0 10.196 0 7.819 0 3.526 5 0 11.094 0 17.188 0 22.03 3.526 22.03 7.82c0 4.369-4.922 7.819-10.937 7.819H9.375v-.077zm1.719 1.227c6.015 0 11.094-3.297 12.031-7.59A6.304 6.304 0 0 1 25 13.57c0 2.3-1.484 4.6-3.984 6.133-.157 0-.157.153-.157.23.235.613.625 1.15 1.094 1.686.235.154.235.46.156.767-.078.23-.312.46-.625.537l-1.328.076a6.32 6.32 0 0 1-4.375-1.61h-1.797c-3.593 0-6.796-1.226-8.828-3.066 1.328 0 2.969-.383 4.532-1.61h1.406v.077z" fill="#FFF" fill-rule="nonzero"/></svg>