<svg width="391" height="392" xmlns="http://www.w3.org/2000/svg"><g fill-rule="nonzero" fill="none"><path fill="#34384C" d="M0 0h391v391H0z"/><path d="M0 391.18v-43.865c9.794-8.591 35.129-20.079 76.004-34.463 61.312-21.576 67.499-27.704 72.145-39.335 3.097-7.754 3.887-17.1 2.37-28.04-.412-3.833-2.223-7.276-5.432-10.33-4.813-4.579-12.743-23.104-12.743-30.94 0-7.836-4.655-14.31-8.04-14.31-3.387 0-11.944-6.156-11.944-21.695 0-15.539 1.749-18.348 6.846-23.664V117c0-12.41-2.232-27.775 9.75-45.4C140.935 53.973 162.24 33 196.268 33v358.18H0z" fill="#A2A4B1"/><path d="M390.27 391.18v-43.865c-9.795-8.591-35.13-20.079-76.005-34.463-61.312-21.576-67.499-27.704-72.145-39.335-3.097-7.754-3.887-17.1-2.369-28.04.411-3.833 2.222-7.276 5.43-10.33 4.814-4.579 12.744-23.104 12.744-30.94 0-7.836 4.655-14.31 8.04-14.31 3.387 0 11.944-6.156 11.944-21.695 0-15.539-1.749-18.348-6.846-23.664V117c0-12.41 2.232-27.775-9.75-45.4C249.334 53.973 228.029 33 194 33v358.18h196.27z" fill="#A2A4B1"/></g></svg>